<svg xmlns="http://www.w3.org/2000/svg" width="48.549" height="56" viewBox="0 0 48.549 56"><defs><style>.a{fill:#667b8d;}</style></defs><g transform="translate(-12.567 -10.536)"><path class="a" d="M61.111,18.485C60.893,21.271,58.977,24.3,56,26.561c-2.666,2.024-8.446,5.148-17.272,3.407-7.706-1.524-12.908,1.643-15.476,9.414l7.51,25.054a1.65,1.65,0,0,1-1.1,2.035,1.73,1.73,0,0,1-.468.065,1.639,1.639,0,0,1-1.567-1.165l-7.553-25.2a1.7,1.7,0,0,1-.174-.577L14.018,19.987a1.627,1.627,0,0,1-.218-.751l-1.165-3.875a1.63,1.63,0,1,1,3.124-.936l.207.707a12.712,12.712,0,0,1,5.2-3.515c5.17-1.937,12.037-1.241,17.914,1.828,3.613,1.883,12.8,6,19.83,3.374a1.641,1.641,0,0,1,2.2,1.665Z"/></g></svg>