<svg xmlns="http://www.w3.org/2000/svg" width="43.68" height="56" viewBox="0 0 43.68 56"><defs><style>.a{fill:#667b8d;}</style></defs><g transform="translate(-6.5 -1)"><path class="a" d="M46.82,39.6H9.86A3.3,3.3,0,0,0,6.5,42.96v6.048a3.3,3.3,0,0,0,3.36,3.36H46.82a3.37,3.37,0,0,0,3.36-3.36V42.96A3.37,3.37,0,0,0,46.82,39.6Z" transform="translate(0 4.632)"/><path class="a" d="M26.84,16.68A7.84,7.84,0,1,0,19,8.84,7.863,7.863,0,0,0,26.84,16.68Z" transform="translate(1.5)"/><path class="a" d="M27.972,33.164V29.356A1.483,1.483,0,0,0,26.516,27.9h-.56A1.483,1.483,0,0,0,24.5,29.356v3.808a1.483,1.483,0,0,0,1.456,1.456h.56A1.483,1.483,0,0,0,27.972,33.164Z" transform="translate(2.16 3.228)"/><path class="a" d="M26.38,38.19a3.615,3.615,0,0,1-2.912-3.584V30.8a3.729,3.729,0,0,1,3.7-3.7h.56a3.729,3.729,0,0,1,3.7,3.7v3.808a3.615,3.615,0,0,1-2.912,3.584v1.9H41.5v-16.8a6.991,6.991,0,0,0-4.928-6.72l-2.128-.56a3.016,3.016,0,0,0-3.136.9L27.5,21.166,23.468,16.8a2.868,2.868,0,0,0-2.128-.9,5.35,5.35,0,0,0-2.016.448,7.717,7.717,0,0,0-.9.336h-.112A6.855,6.855,0,0,0,13.5,23.294v16.8H26.38Z" transform="translate(0.84 1.786)"/></g></svg>