<svg xmlns="http://www.w3.org/2000/svg" width="61" height="61" viewBox="0 0 61 61"><defs><style>.a{fill:#002442;}.b{fill:#fff;}</style></defs><g transform="translate(-22 -229)"><circle class="a" cx="30.5" cy="30.5" r="30.5" transform="translate(22 229)"/><g transform="translate(30.784 253.826)"><path class="b" d="M-1782.426,70.765h0c.344,0,3.327.3,3.327-2.051,0-1.765-2.119-1.823-2.119-1.823h-5.643v6.884h2.026V71.15h.367l3.006,2.623h2.525Zm-2.408-1.222v-1.43h3.264a.742.742,0,0,1,.741.747c0,.729-.809.683-.809.683Z" transform="translate(1811.891 -63.299)"/><path class="b" d="M-1770.161,71.111l3.1,2.662h2.519l-4.311-3.68,4.142-3.2h-2.5l-4.35,3.114V66.889h-2.006v6.884h2.028v-1.6Z" transform="translate(1807.442 -63.299)"/><path class="b" d="M-1796.739,66.779l-8.064,6.979h2.541l1.614-1.379h3.911v1.36h2.026V66.779Zm-.015,4.027-2.058.005,2.058-1.793Z" transform="translate(1817.895 -63.262)"/><path class="b" d="M-1824.478,68.524l1.258.983a.477.477,0,0,0,.606-.015l7.195-6.226a.681.681,0,0,1,.865-.021l2.571,2.012a.2.2,0,0,0,.26-.007l.338-.291-4.227-3.306a.748.748,0,0,0-.951.023Z" transform="translate(1824.478 -61.494)"/><path class="b" d="M-1802.562,66.156l-1.258-.983a.477.477,0,0,0-.6.015l-7.2,6.226a.68.68,0,0,1-.865.021l-2.572-2.012a.2.2,0,0,0-.259.007l-.337.291,4.227,3.306a.748.748,0,0,0,.951-.023Z" transform="translate(1821.525 -62.691)"/><path class="b" d="M-1811.325,66.82l-1.746,1.511a.341.341,0,0,0,.013.526l1.729,1.35a.17.17,0,0,0,.216-.005l1.747-1.509a.34.34,0,0,0-.013-.526l-1.729-1.352A.17.17,0,0,0-1811.325,66.82Z" transform="translate(1820.701 -63.262)"/></g></g></svg>