<svg xmlns="http://www.w3.org/2000/svg" width="56" height="34.998" viewBox="0 0 56 34.998"><defs><style>.a{fill:#667b8d;}</style></defs><g transform="translate(-2.427 -20.4)"><path class="a" d="M52.6,48.067v-.059l-1.061-4.655a4.729,4.729,0,0,0-4.6-3.653.84.84,0,0,0-.707.354l-1.768,2.592a.552.552,0,0,1-.943,0l-1.768-2.592a.84.84,0,0,0-.707-.354,4.729,4.729,0,0,0-4.6,3.653L35.4,48.008v.059a50.937,50.937,0,0,1,8.6-.648A50.937,50.937,0,0,1,52.6,48.067Z" transform="translate(-13.545 -7.929)"/><path class="a" d="M46.919,31.064h0a4.413,4.413,0,0,0,4.419-4.419V24.819A4.413,4.413,0,0,0,46.919,20.4h0A4.413,4.413,0,0,0,42.5,24.819v1.827A4.413,4.413,0,0,0,46.919,31.064Z" transform="translate(-16.462 0)"/><path class="a" d="M18.673,50.653A4.679,4.679,0,0,0,14.077,47a.84.84,0,0,0-.707.354L11.6,49.946a.552.552,0,0,1-.943,0L8.892,47.354A1.037,1.037,0,0,0,8.126,47a4.729,4.729,0,0,0-4.6,3.653L2.47,55.308a1.627,1.627,0,0,0,1.65,2H8.775c1.237-2.651,5.126-4.6,10.075-5.715Z" transform="translate(0 -10.927)"/><path class="a" d="M14.118,38.364h0a4.413,4.413,0,0,0,4.419-4.419V32.119A4.413,4.413,0,0,0,14.118,27.7h0A4.413,4.413,0,0,0,9.7,32.119v1.826A4.376,4.376,0,0,0,14.118,38.364Z" transform="translate(-2.987 -2.999)"/><path class="a" d="M85.98,55.308l-1.061-4.655A4.679,4.679,0,0,0,80.323,47a.84.84,0,0,0-.707.354l-1.768,2.592a.552.552,0,0,1-.943,0l-1.768-2.592A.84.84,0,0,0,74.431,47a4.729,4.729,0,0,0-4.6,3.653L69.6,51.6c4.949,1.119,8.838,3.064,10.075,5.715H84.33A1.607,1.607,0,0,0,85.98,55.308Z" transform="translate(-27.595 -10.927)"/><path class="a" d="M79.719,38.364h0a4.413,4.413,0,0,0,4.419-4.419V32.119A4.413,4.413,0,0,0,79.719,27.7h0A4.413,4.413,0,0,0,75.3,32.119v1.826A4.451,4.451,0,0,0,79.719,38.364Z" transform="translate(-29.936 -2.999)"/><ellipse class="a" cx="20.327" cy="7.07" rx="20.327" ry="7.07" transform="translate(10.13 41.257)"/></g></svg>