<svg xmlns="http://www.w3.org/2000/svg" width="134.285" height="32.85" viewBox="0 0 134.285 32.85"><defs><style>.a{fill:#fff;}</style></defs><path class="a" d="M-1772.981,79.02l0,0c1.075-.008,10.413.954,10.413-6.421,0-5.525-6.633-5.706-6.633-5.706h-17.663V88.436h6.342v-8.21h1.147l9.409,8.21h7.9Zm-7.537-3.826V70.719h10.215a2.322,2.322,0,0,1,2.32,2.337c0,2.283-2.533,2.139-2.533,2.139Z" transform="translate(1865.205 -55.652)"/><path class="a" d="M-1762.913,80.1l9.713,8.331h7.885l-13.492-11.519,12.963-10.027h-7.825l-13.616,9.747V66.889h-6.277V88.435h6.349v-5Z" transform="translate(1879.601 -55.652)"/><path class="a" d="M-1779.563,66.779l-25.24,21.843h7.953l5.053-4.317h12.242v4.257h6.342V66.779Zm-.048,12.6-6.442.017,6.442-5.611Z" transform="translate(1845.779 -55.771)"/><path class="a" d="M-1824.478,83.5l3.938,3.078a1.492,1.492,0,0,0,1.9-.048l22.519-19.487a2.13,2.13,0,0,1,2.708-.067l8.047,6.3a.64.64,0,0,0,.812-.021l1.056-.912-13.231-10.347a2.343,2.343,0,0,0-2.978.073Z" transform="translate(1824.478 -61.494)"/><path class="a" d="M-1774.679,68.465l-3.938-3.078a1.492,1.492,0,0,0-1.893.048l-22.52,19.487a2.13,2.13,0,0,1-2.707.067l-8.05-6.3a.64.64,0,0,0-.812.021l-1.054.912,13.231,10.347a2.34,2.34,0,0,0,2.976-.073Z" transform="translate(1834.032 -57.62)"/><path class="a" d="M-1807.356,66.909l-5.465,4.73a1.066,1.066,0,0,0,.042,1.645l5.411,4.226a.531.531,0,0,0,.675-.017l5.467-4.723a1.065,1.065,0,0,0-.042-1.645l-5.411-4.232A.532.532,0,0,0-1807.356,66.909Z" transform="translate(1836.701 -55.772)"/></svg>