<svg xmlns="http://www.w3.org/2000/svg" width="146.75" height="22.759" viewBox="0 0 146.75 22.759"><defs><style>.a,.b{fill:#868686;}.b{font-size:18px;font-family:Roboto-Regular, Roboto;letter-spacing:-0.003em;}</style></defs><g transform="translate(-1053.25 -3433.241)"><g transform="translate(2877.729 3371.748)"><g transform="translate(-1824.478 61.494)"><path class="a" d="M-1778.721,74l0,0c.63,0,6.107.559,6.107-3.765,0-3.24-3.89-3.346-3.89-3.346h-10.358V79.525h3.719V74.71h.673l5.518,4.815h4.635Zm-4.42-2.244V69.135h5.991a1.361,1.361,0,0,1,1.361,1.37c0,1.339-1.485,1.254-1.485,1.254Z" transform="translate(1832.805 -60.299)"/><path class="a" d="M-1767.318,74.639l5.7,4.885H-1757l-7.912-6.755,7.6-5.88h-4.589l-7.985,5.716V66.889h-3.681V79.524h3.723v-2.93Z" transform="translate(1835.747 -60.299)"/><path class="a" d="M-1790,66.779l-14.8,12.809h4.664l2.963-2.532H-1790v2.5h3.719V66.779Zm-.028,7.392-3.778.01,3.778-3.29Z" transform="translate(1828.833 -60.324)"/><path class="a" d="M-1824.478,74.4l2.31,1.805a.875.875,0,0,0,1.111-.028l13.206-11.428a1.249,1.249,0,0,1,1.588-.039l4.719,3.693a.376.376,0,0,0,.476-.012l.619-.535-7.759-6.068a1.374,1.374,0,0,0-1.746.043Z" transform="translate(1824.478 -61.494)"/><path class="a" d="M-1791.624,67.062l-2.309-1.805a.875.875,0,0,0-1.11.028l-13.206,11.428a1.249,1.249,0,0,1-1.588.039l-4.721-3.693a.376.376,0,0,0-.476.012l-.618.535,7.759,6.068a1.373,1.373,0,0,0,1.745-.043Z" transform="translate(1826.431 -60.702)"/><path class="a" d="M-1809.768,66.855l-3.2,2.774a.625.625,0,0,0,.025.965l3.173,2.478a.312.312,0,0,0,.4-.01l3.206-2.77a.625.625,0,0,0-.025-.965l-3.173-2.482A.312.312,0,0,0-1809.768,66.855Z" transform="translate(1826.976 -60.324)"/></g></g><text class="b" transform="translate(1141 3452)"><tspan x="0" y="0">2020 ©</tspan></text></g></svg>