<svg xmlns="http://www.w3.org/2000/svg" width="22.832" height="22.832" viewBox="0 0 22.832 22.832"><defs><style>.a{fill:#fff;}</style></defs><path class="a" d="M26,20.094v3.437a2.294,2.294,0,0,1-2.5,2.291,22.747,22.747,0,0,1-9.907-3.517A22.364,22.364,0,0,1,6.7,15.431,22.645,22.645,0,0,1,3.177,5.5,2.293,2.293,0,0,1,5.462,3H8.906a2.3,2.3,0,0,1,2.3,1.971,14.687,14.687,0,0,0,.8,3.219,2.288,2.288,0,0,1-.517,2.417l-1.458,1.455a18.35,18.35,0,0,0,6.888,6.874l1.458-1.455a2.3,2.3,0,0,1,2.422-.516,14.764,14.764,0,0,0,3.226.8A2.293,2.293,0,0,1,26,20.094Z" transform="translate(-3.168 -3)"/></svg>