<svg xmlns="http://www.w3.org/2000/svg" width="72.974" height="56" viewBox="0 0 72.974 56"><defs><style>.a{fill:#667b8d;}</style></defs><path class="a" d="M75.374,67.109l-25.31-53.12-.227-.53-.53-.3a3.923,3.923,0,0,0-2.046-.455c-2.955,0-8.563,1.894-18.566,11.064l-.152.152c-.076.152-12.579,13.943-22.127,13.261l-4.016-.3L21.5,61.5a6.993,6.993,0,0,0,4.547,1.364c4.7,0,10.078-3.183,16.065-9.548C48.246,46.8,53.4,45.436,56.657,45.436A9.386,9.386,0,0,1,61.2,46.5l.53.379L72.116,68.7ZM45.139,31.038,41.5,24.9l-8.108,4.774-2.046-3.41a71.27,71.27,0,0,1,7.426-5.986L41.8,25.431l7.5-4.4,2.728,5.986ZM24.376,52.483l-3.334-5.608L29.15,42.1l3.334,5.608Zm.834-17.353L17.1,39.9l-.985-1.667A44.477,44.477,0,0,0,24,33.009Zm-8.032,5.532,3.486,5.911-4.244,2.5-4.244-5.456Zm11.594.379-3.334-5.608,8.108-4.774,3.334,5.608Zm-4.85,17.808-2.576-3.334,3.334-1.97,3.258,5.532a6.087,6.087,0,0,1-1.894.227A5.061,5.061,0,0,1,23.921,58.849Zm15.534-7.957c-1.137,1.212-2.2,2.2-3.183,3.107l-3.562-5.986,8.108-4.774,2.425,4.092A40.169,40.169,0,0,0,39.455,50.892Zm17.2-9.093a18.091,18.091,0,0,0-4.85.758L48.776,37.4l-8.108,4.774L37.334,36.57,45.442,31.8l3.637,6.138L55.293,34.3l3.486,7.729A9.109,9.109,0,0,0,56.657,41.8Z" transform="translate(-2.4 -12.7)"/></svg>